<svg version="1.1" id="Layer_1" xmlns="http://www.w3.org/2000/svg" xmlns:xlink="http://www.w3.org/1999/xlink" x="0px" y="0px"
	 width="100%" viewBox="0 0 1327 776" enable-background="new 0 0 1327 776" xml:space="preserve">
<path fill="#C3CBD5" opacity="1.000000" stroke="none" 
	d="
M685.416626,777.000000 
	C683.451477,776.663025 681.913025,776.094727 680.352783,776.026855 
	C670.910645,775.616394 661.387390,775.946350 652.039856,774.807800 
	C642.902893,773.694885 633.951172,771.086609 624.902283,769.210999 
	C621.672607,768.541565 618.315125,768.385681 615.155579,767.498474 
	C599.236206,763.028015 583.945801,756.834473 570.677551,746.931763 
	C560.729858,739.507385 550.698975,731.640808 542.761902,722.235413 
	C535.145081,713.209534 529.541382,702.265808 524.213928,691.585754 
	C518.360107,679.850586 515.542358,667.036926 512.676331,654.160828 
	C508.882782,637.117981 509.145203,620.069885 509.490570,602.457153 
	C558.264648,607.991089 606.576172,613.986755 654.887634,619.982422 
	C656.062439,628.579956 656.383240,637.405823 658.606445,645.723145 
	C662.202637,659.177246 669.467834,670.670166 681.494995,678.372498 
	C684.016479,679.987366 687.404053,680.351929 690.452393,681.019226 
	C695.505432,682.125366 700.834290,684.455261 705.643250,683.699890 
	C717.303650,681.868408 729.798828,681.727295 739.458679,673.370483 
	C749.270447,664.882324 758.722656,655.979370 768.503601,647.454590 
	C781.161804,636.422058 795.973572,633.492493 812.010742,637.312073 
	C815.621643,638.172119 819.211670,640.837708 821.894165,643.571960 
	C831.918152,653.788879 842.032166,663.986145 851.195496,674.956726 
	C858.289490,683.449890 858.698730,693.562256 855.211975,704.201355 
	C851.430664,715.739075 844.034180,724.669617 835.538208,732.587219 
	C830.272217,737.494751 823.766174,741.422485 817.219177,744.531555 
	C803.602600,750.998108 789.803528,757.212646 775.666626,762.407349 
	C765.302979,766.215515 754.370239,768.649780 743.533386,770.954773 
	C726.741028,774.526550 709.760559,776.905090 692.490295,776.015503 
	C691.850342,775.982483 691.195374,776.238342 690.273682,776.679810 
	C688.611084,777.000000 687.222229,777.000000 685.416626,777.000000 
z"/>
<path fill="#A2ACB9" opacity="1.000000" stroke="none" 
	d="
M603.150024,116.985863 
	C604.435852,110.526062 605.787476,104.078293 606.970764,97.599770 
	C607.369812,95.414986 608.335938,92.155251 607.306091,91.127975 
	C605.007935,88.835670 601.736145,87.332146 598.622742,86.118370 
	C596.890625,85.443092 594.677734,86.058151 592.685547,85.983444 
	C582.149048,85.588318 575.389343,80.578140 570.479919,70.312416 
	C566.163269,61.286243 565.958191,52.006088 568.253296,43.060452 
	C572.083374,28.132305 579.320679,14.933455 593.428284,6.889804 
	C600.564148,2.821193 608.374939,1.491896 616.750244,1.338567 
	C643.354248,1.000000 669.708435,1.000000 696.531372,0.999999 
	C702.149536,1.660642 707.329590,2.143426 712.442322,3.019086 
	C722.973389,4.822774 731.910583,9.684436 739.709167,17.039799 
	C748.539246,25.367985 755.372314,35.424732 757.425293,46.940536 
	C759.417358,58.114964 758.957703,70.097923 757.432739,81.437759 
	C755.331421,97.063713 751.246582,112.425224 747.928406,127.882195 
	C747.536987,129.705750 746.622253,131.416962 745.464111,133.588013 
	C738.585571,133.330383 732.187256,132.715378 725.801697,131.987732 
	C716.305359,130.905640 706.813416,129.781982 697.328125,128.606522 
	C685.230713,127.107353 673.143555,125.525330 661.048767,124.004601 
	C651.242493,122.771599 641.433594,121.558540 631.621887,120.369545 
	C622.133911,119.219772 612.640869,118.112045 603.150024,116.985863 
z"/>
<path fill="#B3BCC7" opacity="1.000000" stroke="none" 
	d="
M1328.000000,413.555847 
	C1327.673340,414.711853 1327.167603,415.394684 1327.046875,416.139923 
	C1325.347046,426.619934 1324.512451,437.321198 1321.838013,447.542206 
	C1318.334961,460.929779 1314.503296,474.449463 1308.772339,486.978882 
	C1302.109375,501.546173 1293.287476,515.131775 1285.279419,529.072632 
	C1283.854126,531.553955 1281.828735,533.690552 1279.304199,536.037109 
	C1270.074463,535.048279 1261.607300,534.105957 1253.170654,532.942871 
	C1243.930176,531.669067 1234.717773,530.191589 1225.493164,528.802795 
	C1233.833984,516.867676 1242.377930,505.068176 1250.456177,492.957947 
	C1257.966553,481.699188 1263.932007,469.571472 1267.986328,456.636383 
	C1271.276367,446.139587 1274.367188,435.556152 1276.928467,424.863129 
	C1278.814087,416.991119 1279.702759,408.880280 1281.484131,400.495544 
	C1285.037476,400.486389 1288.145630,400.833099 1291.246826,401.233002 
	C1303.499146,402.812958 1315.749146,404.409546 1328.000000,406.000000 
	C1328.000000,408.370575 1328.000000,410.741119 1328.000000,413.555847 
z"/>
<path fill="#ACB5C1" opacity="1.000000" stroke="none" 
	d="
M1328.000000,405.531311 
	C1315.749146,404.409546 1303.499146,402.812958 1291.246826,401.233002 
	C1288.145630,400.833099 1285.037476,400.486389 1281.537109,400.052917 
	C1281.097534,393.340302 1280.870605,386.685120 1281.047974,380.040741 
	C1281.410889,366.442413 1278.378052,353.236328 1274.583008,340.518829 
	C1270.378052,326.428253 1264.254517,312.816681 1257.945068,299.479675 
	C1253.527588,290.141998 1247.396484,281.614990 1242.425537,272.368103 
	C1250.698364,272.775635 1258.579346,273.512115 1266.453857,274.313080 
	C1278.256958,275.513580 1290.055420,276.759338 1301.855835,277.985870 
	C1304.717651,283.944550 1308.015747,289.738220 1310.345581,295.898102 
	C1314.511963,306.913422 1318.378296,318.063293 1321.801270,329.329712 
	C1323.505249,334.938263 1324.041016,340.915436 1324.937744,346.751648 
	C1325.843628,352.648285 1326.542358,358.576752 1327.666016,364.745636 
	C1328.000000,378.354218 1328.000000,391.708466 1328.000000,405.531311 
z"/>
<path fill="#BCC4CF" opacity="1.000000" stroke="none" 
	d="
M20.096502,488.991974 
	C17.121140,481.285400 13.559649,473.745117 11.314984,465.831268 
	C8.337483,455.333771 6.307266,444.561768 4.034305,433.872833 
	C3.026547,429.133636 2.421358,424.308868 1.316717,419.261475 
	C1.000000,399.645782 1.000000,380.291534 0.999997,360.468658 
	C1.287091,359.812683 1.574187,359.625397 2.422002,359.217041 
	C7.701743,359.514618 12.420127,360.039215 17.139915,360.550842 
	C27.720724,361.697815 38.302231,362.838379 48.883453,363.981567 
	C47.981693,370.960022 47.071362,377.937408 46.187904,384.918182 
	C46.063187,385.903625 45.930061,386.920868 46.036388,387.897736 
	C47.354561,400.008392 47.684582,412.346375 50.341461,424.159729 
	C53.323242,437.417725 57.699131,450.492096 62.813148,463.100983 
	C67.189697,473.891541 73.466141,483.911560 78.456047,494.635345 
	C70.150986,494.217041 62.289005,493.465851 54.434055,492.647278 
	C42.985558,491.454224 31.542107,490.212799 20.096502,488.991974 
z"/>
<path fill="#A8B2BF" opacity="1.000000" stroke="none" 
	d="
M603.089417,117.405136 
	C612.640869,118.112045 622.133911,119.219772 631.621887,120.369545 
	C641.433594,121.558540 651.242493,122.771599 661.048767,124.004601 
	C673.143555,125.525330 685.230713,127.107353 697.328125,128.606522 
	C706.813416,129.781982 716.305359,130.905640 725.801697,131.987732 
	C732.187256,132.715378 738.585571,133.330383 745.414612,133.990738 
	C745.232117,137.688095 744.613220,141.390503 743.867737,145.850067 
	C747.008057,146.253281 749.875549,146.938431 752.743958,146.942429 
	C799.740479,147.007828 846.738586,146.776825 893.732666,147.122437 
	C906.746643,147.218124 919.842773,148.320251 932.722778,150.189758 
	C941.343811,151.441040 947.072327,157.264450 950.628357,165.760681 
	C953.986755,173.784637 954.460144,182.076218 952.661987,189.789642 
	C950.170715,200.475830 945.980103,210.773361 938.415588,219.480728 
	C931.656067,227.261322 924.380493,233.874619 914.494751,237.193008 
	C913.264221,237.606064 911.944641,237.923096 910.655701,237.966385 
	C899.209106,238.350891 887.761841,238.862747 876.311462,238.962814 
	C828.866455,239.377548 781.420349,239.670731 733.974487,239.985367 
	C724.642273,240.047256 724.541870,239.977768 722.583435,248.855484 
	C720.905396,256.462555 719.585205,264.148285 717.927002,271.760071 
	C716.865662,276.632111 715.477600,281.432983 713.635620,286.627960 
	C709.441772,286.524261 705.848938,286.054626 702.255005,285.593048 
	C690.327637,284.061096 678.407104,282.474213 666.470520,281.018005 
	C654.200928,279.521149 641.910156,278.197693 629.638672,276.716064 
	C617.047424,275.195862 604.460693,273.632965 591.886780,271.976807 
	C585.208679,271.097198 578.561890,269.980164 571.900940,268.970276 
	C573.765076,259.552185 575.629272,250.134064 577.637268,239.989380 
	C571.882141,239.989380 566.092468,240.503601 560.434082,239.861511 
	C553.068665,239.025696 545.676331,237.947449 539.451477,233.017120 
	C527.936096,223.896500 524.637573,211.706482 526.248840,197.892792 
	C527.436340,187.712158 530.531677,178.068253 536.647583,169.546509 
	C544.543335,158.544739 553.945862,150.060852 568.264404,149.002823 
	C577.609497,148.312286 586.948669,147.540649 597.071594,146.743866 
	C598.956848,137.591705 600.992798,127.708054 603.089417,117.405136 
z"/>
<path fill="#B3BCC7" opacity="1.000000" stroke="none" 
	d="
M571.602905,269.230377 
	C578.561890,269.980164 585.208679,271.097198 591.886780,271.976807 
	C604.460693,273.632965 617.047424,275.195862 629.638672,276.716064 
	C641.910156,278.197693 654.200928,279.521149 666.470520,281.018005 
	C678.407104,282.474213 690.327637,284.061096 702.255005,285.593048 
	C705.848938,286.054626 709.441772,286.524261 713.447388,286.983612 
	C712.734802,292.676422 711.608459,298.375519 710.485718,304.075256 
	C708.651489,313.386810 706.831482,322.701141 704.983215,332.009918 
	C703.327026,340.351349 701.703369,348.700012 699.952881,357.021820 
	C697.341125,369.438019 694.671082,381.842346 691.950623,394.235168 
	C689.193054,406.797394 686.270569,419.323730 683.562256,431.896362 
	C681.884216,439.686249 680.511169,447.541382 678.925720,455.351898 
	C677.561096,462.074829 676.089478,468.776062 673.910522,475.749023 
	C670.667664,475.922882 668.154968,476.026947 665.695190,475.714600 
	C651.132751,473.865448 636.594482,471.823730 622.025146,470.033051 
	C607.119080,468.201050 592.177368,466.660278 577.268372,464.850464 
	C561.877747,462.982178 546.507690,460.943390 531.128662,458.979218 
	C533.088013,449.416077 535.097229,439.862823 536.992004,430.286896 
	C538.735840,421.473938 540.279114,412.621002 542.058838,403.815582 
	C543.247803,397.933167 544.754822,392.115814 546.016418,386.247131 
	C549.060120,372.088928 551.996033,357.907410 555.065613,343.754852 
	C557.646851,331.853363 560.429199,319.995270 562.982361,308.087921 
	C564.796875,299.625214 566.312439,291.098694 568.091370,282.627930 
	C569.017395,278.218292 570.224670,273.867706 571.602905,269.230377 
z"/>
<path fill="#BCC4CF" opacity="1.000000" stroke="none" 
	d="
M531.077026,459.396820 
	C546.507690,460.943390 561.877747,462.982178 577.268372,464.850464 
	C592.177368,466.660278 607.119080,468.201050 622.025146,470.033051 
	C636.594482,471.823730 651.132751,473.865448 665.695190,475.714600 
	C668.154968,476.026947 670.667664,475.922882 673.617188,476.023651 
	C672.133545,484.665863 670.032410,493.264343 668.294617,501.935608 
	C666.970520,508.542053 666.042114,515.231262 665.054993,521.901001 
	C663.638672,531.470398 662.198730,541.039307 661.006897,550.638062 
	C659.539795,562.454712 659.314392,574.527344 656.702698,586.070923 
	C654.196472,597.148193 655.762024,608.086792 654.925049,619.516602 
	C606.576172,613.986755 558.264648,607.991089 509.532593,601.989136 
	C509.755035,586.940613 509.669373,571.820374 511.268341,556.880493 
	C512.581177,544.613770 515.915771,532.565125 518.317749,520.412659 
	C520.244324,510.665375 521.952576,500.871796 524.058472,491.164001 
	C526.154297,481.502869 528.636230,471.925751 530.910828,462.302795 
	C531.098511,461.508667 530.994141,460.645508 531.077026,459.396820 
z"/>
<path fill="#A2ACB9" opacity="1.000000" stroke="none" 
	d="
M1087.952393,145.099396 
	C1084.104248,143.436401 1080.227295,141.836548 1076.414551,140.095963 
	C1070.342163,137.323807 1064.303589,134.476364 1058.266846,131.626984 
	C1050.355713,127.892937 1042.599731,123.787689 1034.522583,120.459602 
	C1024.600830,116.371490 1014.436096,112.866394 1004.339722,109.210449 
	C995.321472,105.944908 986.295166,102.691536 977.194458,99.667137 
	C969.634766,97.154831 961.977966,94.928551 954.334900,92.674820 
	C944.900940,89.893005 935.511963,86.907623 925.967773,84.562675 
	C911.877747,81.100861 897.688049,78.032852 883.501709,74.978889 
	C874.888611,73.124710 866.184692,71.696678 857.552917,69.924248 
	C848.495667,68.064438 839.513855,65.817184 830.426086,64.133003 
	C824.608582,63.054886 818.653687,62.731686 812.769531,61.996651 
	C801.726990,60.617237 790.639404,59.495426 779.668884,57.674156 
	C771.142029,56.258572 765.881226,50.991459 763.537720,42.379898 
	C761.923950,36.449894 759.387756,30.721037 756.791016,25.121567 
	C753.831848,18.740734 758.296814,10.056105 765.449524,10.130479 
	C775.681702,10.236874 785.926636,11.010430 796.125305,11.944787 
	C808.145569,13.046023 820.169189,14.308490 832.102844,16.093019 
	C841.719360,17.531036 851.182556,19.966698 860.755005,21.736231 
	C867.379089,22.960728 874.122009,23.561344 880.725281,24.875443 
	C890.874023,26.895124 900.940491,29.325201 911.056702,31.512430 
	C921.277527,33.722267 931.620483,35.454472 941.718933,38.119610 
	C952.296143,40.911091 962.637207,44.592590 973.103394,47.813789 
	C975.144714,48.442039 977.348145,48.557270 979.371887,49.226387 
	C991.041260,53.084423 1002.702698,56.969563 1014.320190,60.980362 
	C1023.650757,64.201607 1033.009766,67.375435 1042.183228,71.007324 
	C1051.856323,74.837105 1061.333130,79.164726 1070.878784,83.313850 
	C1077.472778,86.179985 1084.149292,88.887695 1090.588623,92.071098 
	C1098.903809,96.181808 1107.062866,100.616821 1115.208374,105.060303 
	C1122.837036,109.221832 1130.431763,113.455879 1137.911865,117.877182 
	C1146.939331,123.213127 1155.967896,128.569443 1164.744873,134.301270 
	C1175.168945,141.108597 1185.325806,148.324890 1195.297852,155.681244 
	C1184.674072,154.679214 1174.354736,153.329163 1164.027100,152.047012 
	C1142.382202,149.359741 1120.745239,146.598740 1099.073120,144.149506 
	C1095.448364,143.739853 1091.663330,144.746948 1087.952393,145.099396 
z"/>
<path fill="#BCC4CF" opacity="1.000000" stroke="none" 
	d="
M1225.203613,528.911011 
	C1234.717773,530.191589 1243.930176,531.669067 1253.170654,532.942871 
	C1261.607300,534.105957 1270.074463,535.048279 1278.996460,536.164490 
	C1276.088013,541.423645 1273.210693,547.031982 1269.230591,551.700134 
	C1260.948364,561.414062 1252.478149,571.034851 1243.359985,579.952271 
	C1230.843872,592.192566 1217.918945,604.050964 1204.665771,615.489624 
	C1194.999756,623.832397 1184.734619,631.532898 1174.335571,638.958008 
	C1166.234619,644.742188 1157.563477,649.738708 1149.055542,654.937622 
	C1143.378296,658.406921 1137.542480,661.616882 1131.051758,664.826904 
	C1122.196899,663.475586 1114.090576,662.059265 1105.934204,661.044800 
	C1091.056763,659.194336 1076.136230,657.688232 1061.263672,655.801941 
	C1057.108398,655.274902 1053.058350,653.918884 1048.959961,652.943115 
	C1049.669434,652.125793 1050.217773,650.978271 1051.112793,650.541321 
	C1062.461060,645.002625 1073.960571,639.765747 1085.216553,634.048523 
	C1096.865845,628.131592 1108.537720,622.186157 1119.744263,615.490906 
	C1130.613037,608.997253 1141.037109,601.725647 1151.409546,594.444092 
	C1161.352661,587.463928 1171.388184,580.514954 1180.636597,572.672058 
	C1191.323486,563.609497 1201.314453,553.708008 1211.367065,543.923645 
	C1216.169189,539.249817 1220.415894,534.005249 1225.203613,528.911011 
z"/>
<path fill="#A5B0BC" opacity="1.000000" stroke="none" 
	d="
M1088.147583,145.380157 
	C1091.663330,144.746948 1095.448364,143.739853 1099.073120,144.149506 
	C1120.745239,146.598740 1142.382202,149.359741 1164.027100,152.047012 
	C1174.354736,153.329163 1184.674072,154.679214 1195.422607,155.996796 
	C1203.459473,162.391983 1211.409790,168.431885 1218.605591,175.266281 
	C1230.557495,186.617798 1242.325806,198.197037 1253.599365,210.216949 
	C1262.472290,219.677338 1271.093628,229.502975 1278.701660,239.983093 
	C1286.037476,250.088333 1291.933228,261.239105 1298.456909,271.933441 
	C1299.543335,273.714172 1300.605591,275.509583 1301.767456,277.642029 
	C1290.055420,276.759338 1278.256958,275.513580 1266.453857,274.313080 
	C1258.579346,273.512115 1250.698364,272.775635 1242.362305,272.020416 
	C1232.066162,259.917267 1222.957764,247.104614 1212.197754,235.874283 
	C1199.786499,222.920349 1186.334595,210.863129 1172.545410,199.362747 
	C1162.236206,190.764694 1150.853149,183.398499 1139.622314,175.976929 
	C1128.512451,168.635193 1117.059204,161.802597 1105.626465,154.964127 
	C1100.017212,151.608994 1094.113281,148.746384 1088.147583,145.380157 
z"/>
<path fill="#C3CBD5" opacity="1.000000" stroke="none" 
	d="
M1046.040405,706.066345 
	C1032.295288,711.056274 1018.585388,716.146179 1004.792480,721.000427 
	C995.856995,724.145142 986.883911,727.238464 977.779541,729.835449 
	C961.638184,734.439697 945.432617,738.840698 929.160950,742.959473 
	C917.192749,745.988892 905.123901,748.673035 893.013000,751.072327 
	C880.015259,753.647339 866.969360,756.122131 853.838867,757.826660 
	C846.934570,758.723022 841.898438,750.424255 845.048157,744.128174 
	C846.578796,741.068420 848.932434,738.410828 850.985229,735.624023 
	C854.669556,730.622192 859.577393,726.140625 861.864014,720.574829 
	C865.809021,710.972168 872.120911,706.313293 882.244812,704.921204 
	C889.900024,703.868591 897.294556,701.021301 904.865356,699.227112 
	C914.239441,697.005493 923.681702,695.072998 933.080017,692.951294 
	C934.840332,692.553833 936.532227,691.853271 938.953735,691.286804 
	C948.598450,692.550232 957.531006,693.929993 966.494507,695.066711 
	C987.895935,697.780823 1009.321045,700.309204 1030.715210,703.077637 
	C1035.866333,703.744141 1040.934204,705.052917 1046.040405,706.066345 
z"/>
<path fill="#C0C8D2" opacity="1.000000" stroke="none" 
	d="
M1046.384033,706.038879 
	C1040.934204,705.052917 1035.866333,703.744141 1030.715210,703.077637 
	C1009.321045,700.309204 987.895935,697.780823 966.494507,695.066711 
	C957.531006,693.929993 948.598450,692.550232 939.294678,691.123047 
	C946.891968,688.656555 954.934814,686.611633 962.781189,683.980957 
	C976.654480,679.329834 990.415344,674.342163 1004.208252,669.452881 
	C1009.177856,667.691162 1014.124695,665.860413 1019.046021,663.967773 
	C1028.129028,660.474426 1037.183228,656.906128 1046.258545,653.392456 
	C1046.863647,653.158203 1047.544922,653.120850 1048.575439,652.967529 
	C1053.058350,653.918884 1057.108398,655.274902 1061.263672,655.801941 
	C1076.136230,657.688232 1091.056763,659.194336 1105.934204,661.044800 
	C1114.090576,662.059265 1122.196899,663.475586 1130.691895,664.873657 
	C1128.171875,666.960144 1125.417725,669.130859 1122.372437,670.756165 
	C1115.859375,674.232056 1109.208740,677.451599 1102.591064,680.729004 
	C1091.815796,686.065491 1081.125732,691.590210 1070.200684,696.601807 
	C1062.547852,700.112244 1054.563843,702.900574 1046.384033,706.038879 
z"/>
<path fill="#C3CBD5" opacity="1.000000" stroke="none" 
	d="
M218.064331,621.978882 
	C223.585648,624.516174 229.188828,626.892334 234.602356,629.641907 
	C238.925812,631.837769 242.865845,634.812378 247.243683,636.872559 
	C257.765503,641.824097 268.392487,646.562439 279.073547,651.162659 
	C291.934601,656.701965 304.744659,662.413452 317.853851,667.308350 
	C332.239197,672.679688 346.866364,677.441467 361.524536,682.033447 
	C376.178284,686.624146 390.939301,690.904846 405.768921,694.891296 
	C417.258575,697.979919 428.907074,700.492004 440.521851,703.095703 
	C448.473328,704.878235 456.498505,706.329163 464.472046,708.016541 
	C473.221069,709.867981 481.918396,711.977844 490.696716,713.671997 
	C496.195465,714.733215 501.840973,715.025818 507.349396,716.047363 
	C512.962280,717.088257 518.691284,718.074707 523.968201,720.120178 
	C526.720520,721.187073 528.909424,724.256165 530.831116,726.812988 
	C536.245789,734.017212 541.390381,741.424500 546.641235,748.751892 
	C548.263306,751.015381 550.441833,753.091553 551.292175,755.615295 
	C551.782471,757.070251 550.246094,759.304810 549.411804,761.090332 
	C547.376465,765.446289 544.139099,767.472168 539.078369,767.065186 
	C531.316345,766.441040 523.475281,766.692566 515.738586,765.889954 
	C506.795898,764.962158 497.920074,763.356079 489.033752,761.929199 
	C481.314545,760.689819 473.587433,759.457886 465.924255,757.921387 
	C454.264343,755.583496 442.662323,752.958008 431.024841,750.506348 
	C422.075592,748.621155 413.023010,747.154663 404.171265,744.895142 
	C391.058655,741.547913 378.084351,737.659302 365.048828,734.009460 
	C359.840973,732.551331 354.550934,731.342224 349.429504,729.627930 
	C331.259277,723.545471 313.025421,717.620239 295.050995,710.996826 
	C282.111176,706.228577 269.524841,700.493652 256.821350,695.094543 
	C249.298065,691.897095 241.688446,688.839233 234.410080,685.142822 
	C221.641907,678.658386 209.024002,671.866333 196.487106,664.942383 
	C188.186584,660.358215 179.894730,655.680725 172.029175,650.403748 
	C158.416489,641.271057 145.066193,631.739990 131.759338,622.162659 
	C127.344719,618.985291 123.401871,615.152405 119.554085,611.312500 
	C130.030365,612.004028 140.210953,612.870911 150.357452,614.034790 
	C162.297745,615.404480 174.199051,617.111511 186.134888,618.523376 
	C196.765549,619.780762 207.420242,620.834961 218.064331,621.978882 
z"/>
<path fill="#A2ACB9" opacity="1.000000" stroke="none" 
	d="
M278.961731,74.909370 
	C285.353851,72.086220 291.625122,68.938202 298.162842,66.506477 
	C312.475250,61.182896 326.869537,56.064873 341.338593,51.183479 
	C348.136810,48.889969 355.197083,47.380295 362.117157,45.438915 
	C371.432465,42.825565 380.666656,39.897289 390.047028,37.549042 
	C399.873596,35.089100 409.826752,33.131428 419.734009,30.998259 
	C431.509430,28.462862 443.253845,25.755983 455.087952,23.528637 
	C466.333740,21.412016 477.664551,19.729059 488.982971,18.021259 
	C498.844940,16.533224 508.733795,15.214705 518.625671,13.936634 
	C526.886047,12.869364 535.146179,11.507544 543.446106,11.116025 
	C553.037659,10.663573 557.987549,18.716513 555.335144,27.863276 
	C553.429443,34.435284 553.021301,41.454430 552.100891,48.295063 
	C551.393738,53.551113 548.103821,56.568501 543.386658,57.650143 
	C538.112000,58.859619 532.628296,59.123940 527.273132,60.023079 
	C516.213501,61.880013 505.191956,63.965096 494.128143,65.795860 
	C488.607513,66.709381 482.975983,66.996017 477.486816,68.047409 
	C466.752167,70.103485 456.090820,72.539673 445.379944,74.724396 
	C442.316193,75.349312 439.134430,75.428185 436.095947,76.138634 
	C422.318756,79.359955 408.561188,82.667969 394.823395,86.053581 
	C390.129944,87.210266 385.514832,88.684898 380.188965,89.746399 
	C369.527252,88.217613 359.539795,86.962296 349.553925,85.694359 
	C337.269775,84.134605 324.986328,82.569443 312.703796,80.997047 
	C302.386139,79.676208 292.063538,78.389122 281.764069,76.938393 
	C280.754730,76.796219 279.892334,75.610634 278.961731,74.909370 
z"/>
<path fill="#C0C8D2" opacity="1.000000" stroke="none" 
	d="
M217.992111,621.626465 
	C207.420242,620.834961 196.765549,619.780762 186.134888,618.523376 
	C174.199051,617.111511 162.297745,615.404480 150.357452,614.034790 
	C140.210953,612.870911 130.030365,612.004028 119.401253,611.012695 
	C111.985153,605.023804 104.750214,599.320923 98.149940,592.959534 
	C89.421928,584.547302 80.712135,576.027039 72.866158,566.811096 
	C62.819164,555.009888 52.920265,542.953613 44.289944,530.111816 
	C35.736950,517.385132 28.841433,503.544678 21.200542,490.203278 
	C21.050137,489.940643 20.673113,489.807800 20.249161,489.303192 
	C31.542107,490.212799 42.985558,491.454224 54.434055,492.647278 
	C62.289005,493.465851 70.150986,494.217041 78.447968,494.995667 
	C89.115425,511.285400 100.449821,526.821106 113.643982,540.775269 
	C123.886444,551.607666 134.890411,561.817749 146.295944,571.425964 
	C158.313248,581.549500 170.918884,591.046326 183.810089,600.039062 
	C194.779633,607.691345 206.520355,614.238159 217.992111,621.626465 
z"/>
<path fill="#B3BCC7" opacity="1.000000" stroke="none" 
	d="
M48.923767,363.563660 
	C38.302231,362.838379 27.720724,361.697815 17.139915,360.550842 
	C12.420127,360.039215 7.701743,359.514618 2.549690,358.988708 
	C4.001320,348.759186 5.567763,338.464508 7.871336,328.337524 
	C9.714041,320.236542 11.829096,312.086273 14.942673,304.412048 
	C19.444828,293.315308 24.482368,282.371613 30.174635,271.839966 
	C35.846588,261.345886 42.503101,251.373352 48.952309,241.316040 
	C51.045521,238.051712 53.846462,235.241196 56.878540,232.368164 
	C59.167698,233.006577 60.872406,233.729965 62.640903,233.957458 
	C78.785553,236.034332 94.941307,238.024933 111.093826,240.040710 
	C107.317642,244.889648 103.474228,249.688034 99.781326,254.599579 
	C94.479477,261.651001 88.897240,268.534851 84.146851,275.946655 
	C78.166069,285.278229 72.416588,294.827698 67.482765,304.738831 
	C63.425106,312.889893 60.205299,321.552185 57.515854,330.266205 
	C54.179527,341.076141 51.772511,352.172882 48.923767,363.563660 
z"/>
<path fill="#A5B0BC" opacity="1.000000" stroke="none" 
	d="
M278.561707,74.942230 
	C279.892334,75.610634 280.754730,76.796219 281.764069,76.938393 
	C292.063538,78.389122 302.386139,79.676208 312.703796,80.997047 
	C324.986328,82.569443 337.269775,84.134605 349.553925,85.694359 
	C359.539795,86.962296 369.527252,88.217613 379.778259,89.781082 
	C379.468719,90.657608 378.990173,91.553749 378.306427,91.755951 
	C371.136841,93.876289 363.853790,95.641396 356.760071,97.983162 
	C346.316650,101.430733 335.995239,105.249413 325.635101,108.947052 
	C321.051300,110.583069 316.436432,112.157158 311.945801,114.024200 
	C298.867676,119.461586 285.854431,125.054916 272.791901,130.530136 
	C270.516602,131.483841 268.125214,132.160568 265.163940,132.725494 
	C259.359406,131.657333 254.194748,130.703247 248.993896,130.027679 
	C239.376266,128.778412 229.733887,127.721245 220.108383,126.530876 
	C208.037750,125.038116 195.973724,123.491844 183.906845,121.968666 
	C189.381378,118.416794 194.601456,114.369545 200.376587,111.402840 
	C220.364868,101.134773 240.477783,91.101379 260.699005,81.299995 
	C266.239990,78.614243 272.325836,77.052582 278.561707,74.942230 
z"/>
<path fill="#ACB5C1" opacity="1.000000" stroke="none" 
	d="
M111.429688,239.985321 
	C94.941307,238.024933 78.785553,236.034332 62.640903,233.957458 
	C60.872406,233.729965 59.167698,233.006577 57.187012,232.215546 
	C60.794029,226.742874 64.183655,221.128357 68.590622,216.477921 
	C80.294319,204.127502 92.296722,192.049438 104.471001,180.160721 
	C109.687141,175.066925 115.624237,170.711395 121.856995,166.270462 
	C139.818649,168.685715 157.201050,170.566696 174.461151,173.237900 
	C178.255798,173.825180 183.425323,171.794312 185.999619,176.852661 
	C180.983887,180.725388 175.971436,184.602341 170.951706,188.469879 
	C162.389481,195.066818 153.441513,201.225220 145.349060,208.354935 
	C133.826035,218.507065 122.929642,229.370422 111.429688,239.985321 
z"/>
<path fill="#A8B2BF" opacity="1.000000" stroke="none" 
	d="
M186.361389,176.879547 
	C183.425323,171.794312 178.255798,173.825180 174.461151,173.237900 
	C157.201050,170.566696 139.818649,168.685715 122.212494,166.219833 
	C125.716286,162.410629 129.160110,158.442627 133.318588,155.476624 
	C147.889847,145.083740 162.689392,135.009888 177.455368,124.892403 
	C179.199905,123.697075 181.273087,122.981369 183.550385,122.005997 
	C195.973724,123.491844 208.037750,125.038116 220.108383,126.530876 
	C229.733887,127.721245 239.376266,128.778412 248.993896,130.027679 
	C254.194748,130.703247 259.359406,131.657333 264.792053,132.784744 
	C257.526733,137.054184 249.943497,140.904968 242.506851,145.020615 
	C227.980118,153.060120 213.516037,161.213669 199.068542,169.395111 
	C194.879059,171.767548 190.834274,174.395554 186.361389,176.879547 
z"/>
</svg>